<?xml version="1.0" encoding="UTF-8" ?>
<!DOCTYPE svg PUBLIC "-//W3C//DTD SVG 1.1//EN" "http://www.w3.org/Graphics/SVG/1.1/DTD/svg11.dtd">
<svg width="92pt" height="361pt" viewBox="0 0 92 361" version="1.1" xmlns="http://www.w3.org/2000/svg">
<path fill="#feffff" d=" M 0.00 0.00 L 92.00 0.00 L 92.00 361.00 L 0.00 361.00 L 0.00 0.00 Z" />
<path fill="#54a4a4" d=" M 8.12 2.94 C 9.71 2.57 11.37 2.60 13.00 2.57 C 35.66 2.69 58.33 2.52 80.98 2.65 C 85.40 2.47 88.95 6.69 88.49 11.00 C 88.50 34.00 88.50 57.00 88.49 80.00 C 88.78 83.60 86.50 87.26 82.93 88.16 C 79.98 88.71 76.95 88.44 73.97 88.48 C 52.99 88.44 32.00 88.48 11.02 88.46 C 6.34 88.91 2.16 84.65 2.62 79.99 C 2.62 56.99 2.62 33.98 2.62 10.98 C 2.35 7.44 4.65 3.88 8.12 2.94 Z" />
<path fill="#feffff" d=" M 5.79 10.98 C 5.40 8.00 7.90 5.31 10.92 5.63 C 33.96 5.56 57.01 5.60 80.06 5.61 C 82.71 5.30 85.51 7.34 85.41 10.14 C 85.56 22.52 85.41 34.90 85.46 47.28 C 83.37 46.99 81.26 46.93 79.17 47.19 C 76.84 46.10 74.00 44.76 71.68 46.65 C 69.12 48.32 69.56 51.58 70.19 54.12 C 64.50 60.57 59.13 67.42 52.29 72.72 C 50.66 70.98 48.69 68.74 46.00 69.46 C 43.62 69.84 42.54 72.13 41.34 73.91 C 35.91 71.31 30.92 67.88 25.45 65.34 C 24.52 62.62 22.62 60.52 19.96 59.41 C 16.74 60.36 14.42 62.74 14.12 66.17 C 11.18 68.06 8.35 70.12 5.73 72.44 C 5.84 51.96 5.70 31.47 5.79 10.98 Z" />
<path fill="#54a4a4" d=" M 66.39 13.29 C 70.09 13.63 74.02 14.49 76.58 17.43 C 79.22 19.87 79.71 23.56 80.09 26.94 C 75.58 27.24 71.08 26.87 66.57 26.78 C 66.49 22.28 66.39 17.79 66.39 13.29 Z" />
<path fill="#54a4a4" d=" M 27.96 15.82 C 28.92 13.95 31.34 14.76 33.03 14.53 C 34.67 14.51 37.64 14.42 37.26 16.90 C 37.36 25.05 37.25 33.22 37.27 41.38 C 30.53 41.78 23.78 41.58 17.03 41.80 C 15.80 41.63 13.05 42.21 13.46 40.06 C 13.38 32.97 13.26 25.86 13.65 18.77 C 16.55 18.76 19.44 18.76 22.34 18.80 C 22.50 20.15 22.63 21.51 22.75 22.86 C 24.43 22.89 26.11 22.91 27.80 22.93 C 27.80 20.56 27.69 18.18 27.96 15.82 Z" />
<path fill="#feffff" d=" M 68.85 15.72 C 73.32 16.84 76.65 20.14 77.95 24.55 C 74.96 24.67 71.96 24.69 68.97 24.72 C 68.90 21.72 68.86 18.72 68.85 15.72 Z" />
<path fill="#feffff" d=" M 30.30 17.05 C 31.80 17.02 33.29 17.01 34.79 17.00 C 34.86 24.45 34.82 31.90 34.82 39.34 C 33.35 39.39 31.88 39.43 30.41 39.47 C 30.31 32.00 30.34 24.52 30.30 17.05 Z" />
<path fill="#54a4a4" d=" M 56.46 19.32 C 58.82 17.42 61.93 17.19 64.79 16.64 C 64.78 20.33 64.78 24.03 64.91 27.73 C 68.64 27.64 72.38 27.63 76.11 27.78 C 76.03 32.49 73.99 37.40 69.63 39.65 C 63.82 43.12 55.62 40.45 52.75 34.39 C 49.99 29.34 51.82 22.59 56.46 19.32 Z" />
<path fill="#feffff" d=" M 54.27 26.30 C 55.30 22.42 58.86 20.10 62.54 19.11 C 62.61 22.82 62.58 26.53 62.58 30.23 C 66.24 30.22 69.89 30.20 73.55 30.23 C 72.64 34.78 68.85 38.89 63.98 38.80 C 57.63 39.26 52.23 32.36 54.27 26.30 Z" />
<path fill="#feffff" d=" M 15.66 21.21 C 17.24 21.19 18.81 21.18 20.39 21.17 C 20.41 27.28 20.40 33.40 20.40 39.52 C 18.82 39.53 17.23 39.53 15.65 39.53 C 15.66 33.42 15.65 27.32 15.66 21.21 Z" />
<path fill="#feffff" d=" M 23.23 25.34 C 24.74 25.32 26.25 25.31 27.76 25.30 C 27.76 30.01 27.76 34.72 27.75 39.43 C 26.24 39.40 24.73 39.37 23.22 39.33 C 23.24 34.66 23.24 30.00 23.23 25.34 Z" />
<path fill="#feffff" d=" M 73.35 48.42 C 76.97 46.27 79.69 52.44 75.85 53.63 C 72.55 55.13 70.59 49.78 73.35 48.42 Z" />
<path fill="#feffff" d=" M 80.62 49.10 C 82.22 49.28 83.83 49.48 85.44 49.68 C 85.43 60.07 85.56 70.46 85.41 80.84 C 85.53 83.68 82.71 85.63 80.05 85.32 C 57.71 85.39 35.37 85.28 13.03 85.37 C 11.02 85.24 8.58 85.59 7.05 83.97 C 5.21 81.83 5.65 78.68 5.92 76.09 C 8.17 72.83 11.63 70.70 14.82 68.47 C 16.46 69.34 18.00 70.87 19.99 70.69 C 22.10 70.64 23.48 68.82 25.02 67.65 C 30.13 70.28 34.94 73.44 40.13 75.92 C 42.81 77.13 44.57 80.69 47.92 79.94 C 49.79 79.77 50.78 78.04 51.85 76.74 C 53.64 74.23 56.30 72.57 58.52 70.48 C 63.41 65.95 67.41 60.58 72.04 55.80 C 73.84 55.86 75.82 56.54 77.45 55.45 C 79.84 54.26 79.90 51.33 80.62 49.10 Z" />
<path fill="#feffff" d=" M 16.07 64.98 C 17.36 63.75 19.17 61.19 21.16 62.79 C 24.11 64.36 22.07 69.15 18.91 68.44 C 17.69 67.53 16.96 66.16 16.07 64.98 Z" />
<path fill="#feffff" d=" M 45.40 72.32 C 48.54 69.87 51.84 75.57 48.41 77.24 C 45.35 79.21 42.32 74.09 45.40 72.32 Z" />
<path fill="#54a4a4" d=" M 8.20 91.88 C 9.75 91.46 11.38 91.52 12.97 91.48 C 35.65 91.59 58.34 91.44 81.02 91.55 C 85.46 91.36 89.05 95.62 88.66 99.94 C 88.65 122.98 88.67 146.03 88.65 169.08 C 88.96 173.28 85.36 177.26 81.11 177.16 C 58.42 177.29 35.73 177.12 13.04 177.24 C 10.26 177.27 7.06 177.15 5.08 174.90 C 3.21 173.12 2.90 170.41 2.95 167.97 C 3.01 145.29 2.96 122.60 2.97 99.92 C 2.69 96.44 4.83 92.94 8.20 91.88 Z" />
<path fill="#feffff" d=" M 8.31 95.24 C 9.73 94.49 11.41 94.67 12.97 94.57 C 34.97 94.62 56.97 94.61 78.97 94.58 C 80.73 94.68 82.82 94.48 84.14 95.92 C 85.61 97.16 85.45 99.24 85.54 100.97 C 85.47 123.65 85.57 146.34 85.49 169.02 C 85.87 172.11 83.06 174.55 80.06 174.21 C 57.71 174.28 35.36 174.18 13.02 174.26 C 10.65 174.30 7.64 174.09 6.53 171.60 C 5.87 168.80 6.19 165.89 6.13 163.05 C 6.17 142.35 6.16 121.66 6.13 100.97 C 6.15 98.91 6.10 96.26 8.31 95.24 Z" />
<path fill="#54a4a4" d=" M 32.04 107.26 C 32.53 106.94 33.52 106.29 34.01 105.96 C 35.36 107.68 37.95 109.15 37.65 111.62 C 36.80 113.18 35.51 114.43 34.38 115.79 C 35.55 116.61 36.72 117.44 37.89 118.28 C 35.63 121.60 32.71 117.08 31.40 115.14 C 32.75 113.74 34.12 112.36 35.48 110.98 C 34.34 109.73 33.18 108.51 32.04 107.26 Z" />
<path fill="#54a4a4" d=" M 41.23 105.80 C 42.96 107.40 45.87 108.88 45.57 111.63 C 44.77 113.13 43.45 114.27 42.32 115.52 C 43.44 116.80 46.08 117.74 44.86 119.79 C 42.52 119.33 39.94 117.59 39.70 115.05 C 40.74 113.51 42.07 112.21 43.32 110.86 C 42.25 109.83 41.19 108.81 40.12 107.79 C 40.40 107.29 40.95 106.30 41.23 105.80 Z" />
<path fill="#54a4a4" d=" M 49.18 105.77 C 50.80 107.32 53.08 108.60 53.55 110.97 C 53.23 112.94 51.29 114.09 50.13 115.58 C 51.35 116.56 52.56 117.54 53.76 118.55 C 51.47 120.96 48.93 118.00 47.58 116.09 C 47.54 113.81 49.95 112.54 51.19 110.89 C 50.13 109.85 49.07 108.81 48.01 107.78 C 48.30 107.28 48.88 106.28 49.18 105.77 Z" />
<path fill="#54a4a4" d=" M 20.38 121.92 C 36.36 121.91 52.34 121.86 68.32 121.87 C 68.13 123.96 67.93 126.05 67.73 128.14 C 70.26 129.00 73.36 129.69 74.51 132.43 C 76.21 136.46 76.01 141.71 73.13 145.16 C 70.28 148.40 65.54 147.96 61.65 148.58 C 59.96 151.91 58.64 155.47 56.46 158.53 C 49.05 159.57 41.46 159.42 33.98 159.20 C 31.53 159.30 31.12 156.38 30.08 154.74 C 25.64 144.24 20.50 133.57 20.38 121.92 Z" />
<path fill="#feffff" d=" M 22.82 124.25 C 37.19 124.27 51.56 124.15 65.93 124.24 C 64.56 135.57 60.50 146.38 55.27 156.46 C 48.15 157.04 41.01 156.99 33.87 157.02 C 28.85 146.66 23.83 135.87 22.82 124.25 Z" />
<path fill="#54a4a4" d=" M 26.54 127.44 C 29.44 129.86 28.62 134.24 29.43 137.58 C 25.79 135.60 26.71 130.89 26.54 127.44 Z" />
<path fill="#feffff" d=" M 67.38 130.53 C 69.36 131.31 72.06 131.77 72.66 134.20 C 73.44 137.23 73.42 140.86 71.48 143.47 C 69.30 146.06 65.57 145.59 62.56 146.01 C 64.47 140.95 66.10 135.79 67.38 130.53 Z" />
<path fill="#54a4a4" d=" M 29.96 142.70 C 34.07 144.46 34.33 149.69 35.90 153.34 C 31.92 151.43 31.36 146.43 29.96 142.70 Z" />
<path fill="#54a4a4" d=" M 7.12 181.91 C 9.36 181.34 11.70 181.53 13.98 181.49 C 35.99 181.59 58.01 181.47 80.02 181.54 C 84.12 181.22 88.03 184.79 87.77 188.96 C 87.82 212.64 87.83 236.33 87.76 260.01 C 87.95 264.15 84.06 267.60 80.01 267.32 C 56.67 267.35 33.33 267.34 9.99 267.33 C 5.92 267.62 2.03 264.17 2.19 260.02 C 2.08 236.68 2.19 213.33 2.13 189.99 C 1.81 186.54 3.73 182.98 7.12 181.91 Z" />
<path fill="#feffff" d=" M 8.59 184.73 C 31.35 184.21 54.16 184.72 76.94 184.48 C 79.05 184.62 81.57 184.15 83.28 185.72 C 84.86 186.99 84.86 189.15 84.90 190.99 C 84.87 213.34 84.87 235.68 84.90 258.03 C 84.89 259.87 84.76 261.99 83.16 263.22 C 81.77 264.48 79.73 264.22 78.00 264.35 C 55.31 264.25 32.62 264.42 9.93 264.27 C 7.14 264.47 4.82 261.85 5.19 259.11 C 5.17 236.05 5.18 212.98 5.18 189.92 C 4.91 187.65 6.24 185.20 8.59 184.73 Z" />
<path fill="#54a4a4" d=" M 40.23 192.09 C 55.78 189.19 72.39 199.73 76.28 215.08 C 81.13 230.50 71.96 248.53 56.74 253.83 C 44.75 258.62 30.16 254.98 21.60 245.39 C 13.87 236.88 11.06 224.05 15.12 213.21 C 18.78 202.25 28.85 193.89 40.23 192.09 Z" />
<path fill="#feffff" d=" M 42.24 194.23 C 52.19 193.11 62.56 197.40 68.71 205.32 C 77.98 216.50 77.08 234.50 66.63 244.62 C 56.73 255.22 38.82 256.52 27.47 247.52 C 17.38 240.15 13.11 226.10 17.22 214.33 C 20.66 203.48 30.93 195.33 42.24 194.23 Z" />
<path fill="#54a4a4" d=" M 38.39 199.54 C 50.29 195.70 64.28 202.20 69.22 213.63 C 72.81 221.06 72.33 230.15 68.17 237.25 C 62.64 247.31 49.84 252.76 38.80 249.41 C 29.24 246.86 21.71 238.47 20.09 228.73 C 17.69 216.21 26.12 202.90 38.39 199.54 Z" />
<path fill="#feffff" d=" M 42.27 201.15 C 49.71 200.02 57.65 202.71 62.78 208.23 C 69.05 214.75 70.98 225.03 67.42 233.37 C 63.29 244.21 50.28 250.50 39.21 247.02 C 29.12 244.41 21.80 234.35 22.14 223.98 C 22.12 212.78 31.14 202.51 42.27 201.15 Z" />
<path fill="#54a4a4" d=" M 44.47 209.32 C 44.66 207.61 44.65 205.76 46.00 204.50 C 46.10 206.09 46.15 207.68 46.19 209.28 C 49.05 209.95 52.04 210.84 53.67 213.51 C 51.12 213.02 48.72 212.04 46.33 211.08 C 46.15 215.35 46.12 219.62 46.28 223.89 C 49.07 224.77 52.39 225.39 54.03 228.11 C 55.90 231.18 55.05 235.19 52.94 237.91 C 51.28 240.01 48.54 240.63 46.16 241.53 C 46.18 243.17 46.19 244.80 46.20 246.44 L 44.60 246.55 C 44.61 244.86 44.62 243.19 44.62 241.51 C 41.61 240.74 35.96 240.40 36.33 236.15 C 38.91 237.68 41.60 239.03 44.49 239.87 C 44.68 235.17 44.62 230.47 44.61 225.77 C 42.62 225.01 40.50 224.46 38.77 223.17 C 35.60 220.60 35.63 215.26 38.43 212.42 C 39.99 210.66 42.38 210.16 44.47 209.32 Z" />
<path fill="#feffff" d=" M 38.41 217.00 C 38.43 213.63 41.92 212.27 44.45 211.01 C 44.68 215.29 44.69 219.58 44.49 223.87 C 41.76 222.48 37.73 220.82 38.41 217.00 Z" />
<path fill="#feffff" d=" M 46.25 225.80 C 49.06 226.93 53.25 228.11 52.86 231.96 C 53.48 236.09 49.74 238.75 46.20 239.63 C 46.17 235.02 46.17 230.41 46.25 225.80 Z" />
<path fill="#54a4a4" d=" M 7.24 273.06 C 10.13 272.52 13.09 272.79 16.01 272.76 C 37.03 272.80 58.05 272.74 79.06 272.78 C 83.57 272.41 87.64 276.42 87.29 280.95 C 87.30 303.95 87.28 326.95 87.30 349.96 C 87.77 354.59 83.66 358.95 78.97 358.47 C 55.98 358.48 32.99 358.46 10.01 358.48 C 5.75 358.94 1.50 355.37 1.64 351.01 C 1.57 327.66 1.65 304.30 1.61 280.95 C 1.32 277.41 3.77 273.89 7.24 273.06 Z" />
<path fill="#feffff" d=" M 7.30 276.28 C 8.78 275.71 10.41 275.81 11.97 275.75 C 34.32 275.86 56.68 275.71 79.04 275.83 C 81.90 275.58 84.46 278.04 84.18 280.93 C 84.30 303.30 84.15 325.67 84.26 348.03 C 84.14 350.03 84.47 352.42 82.92 353.99 C 81.43 355.60 79.04 355.37 77.05 355.45 C 54.45 355.33 31.85 355.54 9.26 355.36 C 6.37 355.49 4.35 352.73 4.61 350.02 C 4.57 327.32 4.63 304.62 4.59 281.92 C 4.49 279.76 5.07 277.17 7.30 276.28 Z" />
<path fill="#54a4a4" d=" M 18.28 289.28 C 21.30 289.17 24.33 289.15 27.35 289.15 C 27.75 294.94 27.54 300.74 27.57 306.54 C 29.12 306.62 30.68 306.71 32.24 306.82 C 32.09 308.73 32.47 310.78 31.74 312.59 C 30.36 312.89 28.96 313.05 27.56 313.24 C 27.48 322.47 27.84 331.72 27.34 340.94 C 24.33 341.00 21.31 340.97 18.30 340.80 C 18.02 331.60 18.24 322.39 18.17 313.19 C 16.57 313.04 14.96 312.94 13.38 312.65 C 13.11 310.71 13.13 308.74 13.08 306.79 C 14.77 306.71 16.46 306.64 18.15 306.59 C 18.20 300.82 18.08 295.04 18.28 289.28 Z" />
<path fill="#54a4a4" d=" M 39.81 288.64 C 42.86 288.51 45.92 288.51 48.97 288.66 C 49.33 300.41 48.98 312.17 49.17 323.92 C 50.40 324.07 51.64 324.26 52.86 324.50 C 53.23 326.38 53.18 328.31 53.25 330.23 C 51.87 330.36 50.47 330.47 49.08 330.57 C 49.13 333.80 49.12 337.02 49.05 340.26 C 45.96 340.42 42.87 340.41 39.79 340.25 C 39.70 336.99 39.69 333.74 39.71 330.49 C 37.97 330.47 36.23 330.45 34.49 330.44 C 34.42 328.38 34.38 326.33 34.34 324.28 C 36.13 324.19 37.91 324.14 39.69 324.06 C 39.77 312.25 39.55 300.44 39.81 288.64 Z" />
<path fill="#54a4a4" d=" M 61.32 288.96 C 64.23 288.09 67.33 288.61 70.32 288.63 C 70.44 291.34 70.47 294.05 70.52 296.77 C 72.25 296.91 73.98 297.06 75.71 297.23 C 75.65 299.31 75.56 301.39 75.47 303.48 C 73.81 303.46 72.15 303.45 70.48 303.44 C 70.40 315.72 70.62 328.00 70.36 340.28 C 67.28 340.41 64.21 340.41 61.13 340.24 C 60.90 328.00 61.11 315.75 61.02 303.51 C 59.64 303.44 58.27 303.36 56.89 303.26 C 56.83 301.35 56.76 299.44 56.71 297.54 C 58.13 297.21 59.55 296.92 60.98 296.67 C 60.99 294.09 60.93 291.51 61.32 288.96 Z" />
<path fill="#feffff" d=" M 20.70 291.89 C 22.05 291.20 23.67 291.43 25.14 291.18 C 25.19 296.35 25.19 301.51 25.13 306.68 C 23.61 306.64 22.09 306.61 20.57 306.58 C 20.67 301.68 20.35 296.78 20.70 291.89 Z" />
<path fill="#feffff" d=" M 42.15 290.92 C 43.66 290.92 45.18 290.94 46.70 290.97 C 46.69 302.01 46.71 313.05 46.69 324.10 C 45.18 324.13 43.67 324.16 42.16 324.19 C 42.09 313.10 42.11 302.01 42.15 290.92 Z" />
<path fill="#feffff" d=" M 63.45 291.05 C 64.95 290.95 66.46 290.87 67.96 290.81 C 67.99 292.83 68.02 294.86 68.04 296.90 C 66.52 296.87 64.99 296.85 63.46 296.82 C 63.46 294.89 63.46 292.97 63.45 291.05 Z" />
<path fill="#feffff" d=" M 59.16 299.32 C 63.72 299.38 68.29 299.04 72.83 299.42 C 73.06 299.86 73.52 300.75 73.74 301.19 C 69.04 301.27 64.34 301.19 59.64 301.31 C 59.52 300.81 59.28 299.82 59.16 299.32 Z" />
<path fill="#feffff" d=" M 63.48 303.46 C 64.99 303.45 66.50 303.44 68.02 303.43 C 68.02 315.00 68.10 326.57 67.97 338.15 C 66.53 338.17 65.09 338.20 63.66 338.24 C 63.25 326.65 63.58 315.05 63.48 303.46 Z" />
<path fill="#feffff" d=" M 14.56 310.07 C 17.40 308.28 20.86 308.91 24.04 308.78 C 26.21 308.95 28.93 308.24 30.33 310.38 C 25.08 310.62 19.77 310.90 14.56 310.07 Z" />
<path fill="#feffff" d=" M 20.56 313.03 C 22.10 313.01 23.63 312.99 25.16 312.99 C 25.12 321.55 25.29 330.12 25.06 338.68 C 23.57 338.59 22.07 338.52 20.58 338.43 C 20.56 329.96 20.59 321.49 20.56 313.03 Z" />
<path fill="#feffff" d=" M 36.29 326.68 C 41.25 326.07 46.27 326.39 51.26 326.51 C 50.94 326.87 50.29 327.59 49.97 327.95 C 45.66 328.37 41.30 328.30 36.99 327.99 L 36.29 326.68 Z" />
<path fill="#feffff" d=" M 42.07 330.47 C 43.62 330.47 45.17 330.47 46.72 330.48 C 46.71 332.97 46.70 335.46 46.68 337.96 C 45.19 338.06 43.69 338.15 42.20 338.23 C 42.15 335.64 42.11 333.06 42.07 330.47 Z" />
</svg>
